<?xml version="1.0" encoding="UTF-8"?>
<svg width="512" height="512" viewBox="0 0 512 512" fill="none" xmlns="http://www.w3.org/2000/svg">
  <!-- Background circle -->
  <circle cx="256" cy="256" r="240" fill="#f8fafc" stroke="#e5e7eb" stroke-width="16"/>
  
  <!-- Barometer arc -->
  <path d="M 256 256 A 180 180 0 0 1 436 256" stroke="#bfa14a" stroke-width="24" fill="none"/>
  
  <!-- Zone indicators -->
  <path d="M 256 256 A 180 180 0 0 1 436 256" stroke="#ef4444" stroke-width="24" fill="none" opacity="0.2"/>
  <path d="M 256 256 A 180 180 0 0 1 256 436" stroke="#22c55e" stroke-width="24" fill="none" opacity="0.2"/>
  <path d="M 256 256 A 180 180 0 0 1 76 256" stroke="#eab308" stroke-width="24" fill="none" opacity="0.2"/>
  
  <!-- Needle -->
  <path d="M 256 256 L 256 76 L 260 80 L 256 84 L 252 80 Z" fill="#ffd700" stroke="#daa520" stroke-width="2"/>
  
  <!-- Center knob -->
  <circle cx="256" cy="256" r="24" fill="#bfa14a" stroke="#fffbe6" stroke-width="4"/>
  <ellipse cx="248" cy="248" rx="8" ry="3" fill="#fff" opacity="0.7"/>
  
  <!-- Glass glare -->
  <path d="M 256 256 A 180 180 0 0 1 436 256" stroke="white" stroke-width="24" fill="none" opacity="0.1"/>
</svg> 